<svg version="1.1" xmlns="http://www.w3.org/2000/svg" xmlns:xlink="http://www.w3.org/1999/xlink" width="365.10856" height="363.39465" viewBox="0,0,365.10856,363.39465"><g transform="translate(-56.52275,1.25)"><g data-paper-data="{&quot;isPaintingLayer&quot;:true}" fill-rule="nonzero" stroke-linecap="butt" stroke-linejoin="miter" stroke-miterlimit="10" stroke-dasharray="" stroke-dashoffset="0" style="mix-blend-mode: normal"><path d="M57.82859,360.89465v-25.28634h25.57164v25.28634z" fill="#2a2a2a" stroke="#4d4d4d" stroke-width="2.5"/><path d="M400.49132,360.32136v-25.28634h19.89v25.28634z" fill="#2a2a2a" stroke="#4d4d4d" stroke-width="2.5"/><path d="M60.38307,335.45925v-328.16004h295.3003v328.16004z" fill="#2e2e2e" stroke="#4d4d4d" stroke-width="2.5"/><path d="M57.77275,335.45925v-335.45925h362.56616v335.45925z" fill="#2a2a2a" stroke="#4d4d4d" stroke-width="2.5"/><path d="M59.0634,337.99762v-5.07673h23.13978v5.07673z" fill="#2a2a2a" stroke="none" stroke-width="0"/><path d="M360.13339,299.37171v-76.75911h19.89v76.75911z" fill="#262626" stroke="none" stroke-width="0"/><path d="M359.99371,217.30753v-76.75911h19.89v76.75911z" fill="#262626" stroke="none" stroke-width="0"/><path d="M391.52619,49.72987v258.3962h-11.14797v-258.39619z" fill="#262626" stroke="#1a1a1a" stroke-width="1"/><path d="M359.99371,135.42307v-76.75911h19.89v76.75911z" fill="#262626" stroke="none" stroke-width="0"/><path d="M59.16003,334.07305v-326.07223h342.19248v326.07224z" fill="#333333" stroke="none" stroke-width="0"/><path d="M82.93511,259.69668l-9.7474,-10.6366l0.14192,-87.99474c0,0 9.47252,-18.38126 9.41246,-19.71506c-0.37997,-8.44021 -0.25513,-118.45202 -0.25513,-118.45202h306.42706l0.44816,296.27734l-306.41564,-0.2517z" fill="#1a1a1a" stroke="none" stroke-width="0"/><path d="M83.00053,319.0894v-55.35517h306.36165v55.35517z" fill="#3d3d3d" stroke="none" stroke-width="0"/><path d="M109.43708,135.13829c0,-19.40107 0,-48.55192 0,-57.96185c0,-5.45207 6.94535,-16.7992 17.74906,-16.7992c14.54249,0 82.55016,0 117.36114,0c12.44474,0 20.64687,7.62527 20.64687,18.11652c0,18.2162 0,45.07286 0,55.65656c0,8.55909 -9.32137,19.42696 -23.18245,19.42696c-34.23415,0 -96.16014,0 -113.73887,0c-9.15979,0 -18.83575,-7.42528 -18.83575,-18.43897z" fill="#121212" stroke="none" stroke-width="0"/><path d="M283.87136,263.67277v-239.96535h22.67824v239.96535z" fill="#303030" stroke="none" stroke-width="0"/><g fill="#8c8c8c" stroke="none" stroke-width="1"><path d="M297.04022,216.79746l-0.1325,0.1613l-0.29956,-0.26499l-0.30532,-0.26501l0.20163,-0.26499c0.51847,-0.67978 0.47815,-1.58422 -0.09794,-2.1315c-0.66826,-0.64521 -1.8665,-0.59913 -2.46563,0.08642c-0.2362,0.26499 -0.40326,0.6913 -0.40326,1.01967c0,0.30532 0.16706,0.76042 0.38022,1.0427l0.20739,0.27075l-0.26501,0.26501l-0.27075,0.26499l-0.17283,-0.20163c-0.56455,-0.66249 -0.75467,-1.4978 -0.54151,-2.32736c0.11521,-0.43783 0.31685,-0.77195 0.66826,-1.10032c0.91597,-0.85837 2.40801,-0.85837 3.32399,-0.00577c0.30532,0.28228 0.61065,0.80075 0.69707,1.16368c0.18434,0.78347 -0.02304,1.68216 -0.52423,2.28704z" data-paper-data="{&quot;index&quot;:null}"/><path d="M297.48956,221.73448c-0.35718,0.9851 -1.32499,1.60727 -2.41379,1.5439c-0.63945,-0.04032 -1.05422,-0.20739 -1.46901,-0.59337c-0.70282,-0.65097 -0.96782,-1.55542 -0.73162,-2.47715c0.25347,-0.95629 0.94477,-1.58999 1.94715,-1.75705c1.20401,-0.21315 2.38497,0.54152 2.7191,1.72824c0.10946,0.39174 0.08065,1.18097 -0.05184,1.55542zM296.79249,220.34612c-0.11521,-0.36293 -0.47815,-0.75467 -0.84683,-0.92173c-0.4551,-0.19587 -1.05999,-0.19011 -1.49781,0.02304c-0.35141,0.17282 -0.55303,0.37445 -0.75467,0.75467c-0.09794,0.18434 -0.12674,0.33412 -0.12674,0.66826c0,0.38021 0.02304,0.47815 0.17858,0.74891c0.20163,0.35141 0.58184,0.65097 0.96206,0.75467c0.32261,0.08642 0.99662,0.04032 1.2501,-0.08642c0.28228,-0.14401 0.62217,-0.47816 0.76043,-0.75467c0.15553,-0.2938 0.18434,-0.84108 0.0749,-1.18673z" data-paper-data="{&quot;index&quot;:null}"/><path d="M297.19576,233.87827l-0.15553,0.23618l-0.26499,-0.18435c-0.14401,-0.10369 -0.28804,-0.20162 -0.31685,-0.21891c-0.02881,-0.01728 0.02881,-0.15555 0.12098,-0.29957c0.22467,-0.36293 0.31685,-0.7201 0.28804,-1.11759c-0.02304,-0.27652 -0.05761,-0.35141 -0.21314,-0.48967c-0.21891,-0.19587 -0.44934,-0.20739 -0.6625,-0.04033c-0.10369,0.08065 -0.1901,0.25924 -0.29956,0.6164c-0.32261,1.07152 -0.37445,1.20978 -0.58184,1.45173c-0.25924,0.30532 -0.48967,0.40325 -0.92173,0.40325c-0.77771,-0.00576 -1.28466,-0.53575 -1.37107,-1.4402c-0.06337,-0.63945 0.17859,-1.46325 0.59913,-2.01053c0.12098,-0.15553 0.14978,-0.14979 0.54152,0.18434l0.16707,0.13826l-0.21315,0.31685c-0.25347,0.38598 -0.37445,0.76618 -0.37445,1.18097c0,0.51271 0.2362,0.82379 0.62217,0.82379c0.26499,0 0.44934,-0.21891 0.59336,-0.71433c0.38022,-1.32499 0.51272,-1.5727 0.93325,-1.76857c0.2938,-0.13249 0.77194,-0.14401 1.06574,-0.01728c0.39174,0.1613 0.6913,0.54152 0.81804,1.0427c0.12674,0.51848 -0.04609,1.41716 -0.37445,1.90683z" data-paper-data="{&quot;index&quot;:null}"/><path d="M297.57018,226.29704c0,1.19826 -0.05185,1.6188 -0.24772,1.999c-0.54151,1.03118 -2.1891,0.94477 -2.58084,-0.13249c-0.04033,-0.11521 -0.09217,-0.20739 -0.11521,-0.20739c-0.01729,0 -0.41477,0.27076 -0.8814,0.60488c-0.46663,0.33412 -0.85836,0.60488 -0.86988,0.60488c-0.01729,0 -0.02881,-0.21314 -0.02881,-0.47238l0.00576,-0.47815l0.81804,-0.57609l0.81804,-0.57607v-0.51847v-0.51848l-0.82379,-0.01728l-0.8238,-0.01728l0.01729,-0.38598l0.01729,-0.38598l2.27552,-0.01728c1.2501,-0.00576 2.31008,0 2.34465,0.01728c0.05761,0.01728 0.0749,0.28804 0.0749,1.07726zM296.75217,226.02628c-0.04609,-0.01728 -0.40326,-0.02304 -0.80075,-0.01728l-0.71433,0.01728l-0.01729,0.65097c-0.01729,0.77195 0.04609,1.05999 0.30532,1.31923c0.1613,0.1613 0.23043,0.19011 0.46086,0.19011c0.33413,0 0.57033,-0.13249 0.70282,-0.40326c0.13826,-0.27652 0.1901,-1.71097 0.06336,-1.75705z" data-paper-data="{&quot;index&quot;:null}"/><path d="M297.57018,237.68615v0.39174l-0.00576,0.39173l-2.25248,0.97934c-1.23858,0.54152 -2.29857,0.99662 -2.36194,1.01967c-0.10369,0.04032 -0.10946,0.01729 -0.09217,-0.39173l0.01729,-0.43783l0.56455,-0.23043l0.5588,-0.2362v-1.10607v-1.11184l-0.57607,-0.24195l-0.57609,-0.24772v-0.3975c0,-0.22467 0.02304,-0.39174 0.05761,-0.39174c0.03456,0 0.9851,0.40326 2.11999,0.8987c1.12912,0.49542 2.16606,0.95053 2.30432,1.00813zM296.57935,238.06637c0.01729,-0.01728 -1.74552,-0.77771 -1.79737,-0.77771c-0.01729,0 -0.03456,0.35141 -0.03456,0.78347c0,0.60488 0.01728,0.77771 0.07488,0.75466c0.03456,-0.01728 0.44358,-0.1901 0.90445,-0.38596c0.46086,-0.19587 0.84108,-0.36293 0.8526,-0.37445z" data-paper-data="{&quot;index&quot;:null}"/><path d="M297.55869,242.68653l-0.01729,0.39173h-2.33313h-2.33313v-0.40325v-0.40326l2.27552,-0.01728c1.2501,-0.00576 2.31008,0 2.35041,0.01728c0.05185,0.01728 0.06913,0.13827 0.05761,0.41478z" data-paper-data="{&quot;index&quot;:null}"/><path d="M297.58173,245.23858l-0.0288,1.28466c-0.01152,0.70282 -0.05761,1.37107 -0.09217,1.48053c-0.21315,0.68553 -0.6913,1.03694 -1.40564,1.03694c-0.21315,0 -0.47238,-0.03456 -0.58184,-0.08065c-0.2938,-0.12098 -0.58761,-0.41477 -0.70859,-0.69705c-0.05761,-0.14401 -0.12098,-0.25924 -0.14401,-0.25924c-0.02304,0 -0.3975,0.25347 -0.83531,0.56456c-0.43783,0.31109 -0.82956,0.58185 -0.86412,0.61065c-0.05761,0.0288 -0.0749,-0.06913 -0.0749,-0.43783v-0.47815l0.82379,-0.58185l0.81804,-0.57607v-0.51271v-0.51848l-0.81804,-0.01728l-0.82379,-0.01728v-0.3975v-0.40326h2.36769zM296.74641,246.06813c-0.04033,-0.01152 -0.3975,-0.01728 -0.79499,-0.01152l-0.71433,0.01728v0.77771c0,0.63945 0.01729,0.81228 0.10369,0.96782c0.34566,0.62793 1.23858,0.50694 1.41715,-0.19011c0.09217,-0.36869 0.08642,-1.52086 -0.01152,-1.56118z" data-paper-data="{&quot;index&quot;:null}"/></g><path d="M111.04999,234.33003c0,-18.10393 0.14619,-37.57371 0.14619,-46.35449c0,-2.78719 1.11538,-7.48675 3.77885,-10.80854c2.19826,-2.74157 8.92961,-3.85498 12.17983,-4.17025c0.35571,-0.01801 5.04172,-8.51994 6.81301,-8.50069c2.40416,0.02614 6.75216,0.06022 9.05642,0.08745c2.23605,0.02642 6.44485,7.716 8.30335,7.716c15.5034,0 11.90664,0 27.31591,0c1.52159,0 5.18753,-7.74832 6.87116,-7.74832c2.70603,0 7.04039,0 9.94125,0c2.09053,0 5.9502,8.2886 8.01868,8.2886c3.44039,0 8.49669,1.34524 10.80537,3.39062c3.38246,2.9967 5.53125,7.30209 5.53125,13.12057c0,16.99828 0,34.18106 0,44.05714c0,7.98684 -6.35241,18.12811 -15.79856,18.12811c-23.33018,0 -68.14666,0 -80.12636,0c-6.24229,0 -12.83634,-6.92884 -12.83634,-17.20616z" fill="none" stroke="#121212" stroke-width="3"/><path d="M292.7901,263.61449v-5.07673h4.84076v5.07673z" fill="#e5f076" stroke="none" stroke-width="0"/><path d="M102.18248,57.59098v76.75911h-19.89v-76.75911z" fill="#262626" stroke="none" stroke-width="0"/><path d="M357.10451,54.95396h-76.75911v-19.89h76.75911z" fill="#262626" stroke="none" stroke-width="0"/><path d="M107.46267,23.56116h258.3962v11.14797h-258.39619z" fill="#262626" stroke="#1a1a1a" stroke-width="1"/><path d="M275.04033,55.09364h-76.75911v-19.89h76.75911z" fill="#262626" stroke="none" stroke-width="0"/><path d="M193.15587,55.09364h-76.75911v-19.89h76.75911z" fill="#262626" stroke="none" stroke-width="0"/><path d="M401.72281,336.99711v-3.92418h17.45912v3.92418z" fill="#2a2a2a" stroke="none" stroke-width="0"/></g></g></svg>